<svg width="400" height="400" viewBox="0 0 400 400" fill="none" xmlns="http://www.w3.org/2000/svg">
<path d="M125 100C125 141.421 158.579 175 200 175C241.421 175 275 141.421 275 100C275 58.5787 241.421 25 200 25C158.579 25 125 58.5786 125 100Z" stroke="black" stroke-width="10"/>
<path fill-rule="evenodd" clip-rule="evenodd" d="M147.946 153.994C146.985 154.34 146.044 154.695 145.124 155.059C137.993 157.886 131.884 161.377 127.475 165.509C123.057 169.649 120 174.79 120 180.729C120 180.82 120.001 180.91 120.002 181H120V222.669C120 223.117 120.017 223.561 120.05 224H120V266.669C120 267.117 120.017 267.561 120.05 268H120V310.669C120 311.117 120.017 311.561 120.05 312H120V354.669C120 360.657 123.016 365.87 127.435 370.098C131.84 374.312 137.949 377.875 145.087 380.76C159.388 386.542 178.803 390 200 390C221.197 390 240.612 386.542 254.913 380.76C262.051 377.875 268.16 374.312 272.565 370.098C276.984 365.87 280 360.657 280 354.669V312H279.95C279.983 311.561 280 311.117 280 310.669V268H279.95C279.983 267.561 280 267.117 280 266.669V224H279.95C279.983 223.561 280 223.117 280 222.669V181H279.998C279.999 180.91 280 180.82 280 180.729C280 174.79 276.943 169.649 272.525 165.509C268.116 161.377 262.007 157.886 254.876 155.059C253.956 154.695 253.015 154.34 252.054 153.994C249.206 156.74 246.142 159.263 242.889 161.534C245.849 162.394 248.624 163.338 251.191 164.356C257.631 166.908 262.506 169.824 265.687 172.806C268.86 175.779 270 178.46 270 180.729C270 182.999 268.86 185.68 265.687 188.653C262.506 191.635 257.631 194.55 251.191 197.103C238.339 202.198 220.242 205.459 200 205.459C179.758 205.459 161.661 202.198 148.809 197.103C142.369 194.55 137.494 191.635 134.313 188.653C131.14 185.68 130 182.999 130 180.729C130 178.46 131.14 175.779 134.313 172.806C137.494 169.824 142.369 166.908 148.809 164.356C151.376 163.338 154.151 162.394 157.111 161.534C153.858 159.263 150.794 156.74 147.946 153.994ZM270 222.669V198.106C265.898 201.309 260.732 204.078 254.876 206.4C240.583 212.065 221.179 215.459 200 215.459C178.821 215.459 159.417 212.065 145.124 206.4C139.268 204.078 134.102 201.309 130 198.106V222.669C130 225.068 131.179 227.84 134.348 230.872C137.531 233.917 142.402 236.889 148.834 239.489C161.674 244.679 179.758 248 200 248C220.242 248 238.326 244.679 251.166 239.489C257.598 236.889 262.469 233.917 265.652 230.872C268.821 227.84 270 225.068 270 222.669ZM270 266.669V240.33C265.907 243.584 260.755 246.399 254.913 248.76C240.612 254.542 221.197 258 200 258C178.803 258 159.388 254.542 145.087 248.76C139.245 246.399 134.093 243.584 130 240.33V266.669C130 269.068 131.179 271.84 134.348 274.872C137.531 277.917 142.402 280.889 148.834 283.489C161.674 288.679 179.758 292 200 292C220.242 292 238.326 288.679 251.166 283.489C257.598 280.889 262.469 277.917 265.652 274.872C268.821 271.84 270 269.068 270 266.669ZM270 310.669V284.33C265.907 287.584 260.755 290.399 254.913 292.76C240.612 298.542 221.197 302 200 302C178.803 302 159.388 298.542 145.087 292.76C139.245 290.399 134.093 287.584 130 284.33V310.669C130 313.068 131.179 315.84 134.348 318.872C137.531 321.917 142.402 324.889 148.834 327.489C161.674 332.679 179.758 336 200 336C220.242 336 238.326 332.679 251.166 327.489C257.598 324.889 262.469 321.917 265.652 318.872C268.821 315.84 270 313.068 270 310.669ZM270 354.669V328.33C265.907 331.584 260.755 334.399 254.913 336.76C240.612 342.542 221.197 346 200 346C178.803 346 159.388 342.542 145.087 336.76C139.245 334.399 134.093 331.584 130 328.33V354.669C130 357.068 131.179 359.84 134.348 362.872C137.531 365.917 142.402 368.889 148.834 371.489C161.674 376.679 179.758 380 200 380C220.242 380 238.326 376.679 251.166 371.489C257.598 368.889 262.469 365.917 265.652 362.872C268.821 359.84 270 357.068 270 354.669Z" fill="black"/>
<path d="M100 205C58.5786 205 25 171.421 25 130C25 88.5786 58.5786 55 100 55M100 170C77.9086 170 60 152.091 60 130C60 107.909 77.9086 90 100 90M300 205C341.421 205 375 171.421 375 130C375 88.5786 341.421 55 300 55M300 170C322.091 170 340 152.091 340 130C340 107.909 322.091 90 300 90" stroke="black" stroke-width="10"/>
<g filter="url(#filter0_ddddf_3223_116)">
<circle cx="200" cy="100" r="30" transform="rotate(-180 200 100)" fill="#1647DB"/>
</g>
<defs>
<filter id="filter0_ddddf_3223_116" x="130" y="30" width="140" height="140" filterUnits="userSpaceOnUse" color-interpolation-filters="sRGB">
<feFlood flood-opacity="0" result="BackgroundImageFix"/>
<feColorMatrix in="SourceAlpha" type="matrix" values="0 0 0 0 0 0 0 0 0 0 0 0 0 0 0 0 0 0 127 0" result="hardAlpha"/>
<feOffset/>
<feGaussianBlur stdDeviation="20"/>
<feComposite in2="hardAlpha" operator="out"/>
<feColorMatrix type="matrix" values="0 0 0 0 0.086 0 0 0 0 0.2795 0 0 0 0 0.86 0 0 0 0.4 0"/>
<feBlend mode="normal" in2="BackgroundImageFix" result="effect1_dropShadow_3223_116"/>
<feColorMatrix in="SourceAlpha" type="matrix" values="0 0 0 0 0 0 0 0 0 0 0 0 0 0 0 0 0 0 127 0" result="hardAlpha"/>
<feOffset/>
<feGaussianBlur stdDeviation="20"/>
<feComposite in2="hardAlpha" operator="out"/>
<feColorMatrix type="matrix" values="0 0 0 0 0.0862745 0 0 0 0 0.278431 0 0 0 0 0.858824 0 0 0 1 0"/>
<feBlend mode="normal" in2="effect1_dropShadow_3223_116" result="effect2_dropShadow_3223_116"/>
<feColorMatrix in="SourceAlpha" type="matrix" values="0 0 0 0 0 0 0 0 0 0 0 0 0 0 0 0 0 0 127 0" result="hardAlpha"/>
<feOffset/>
<feGaussianBlur stdDeviation="10"/>
<feComposite in2="hardAlpha" operator="out"/>
<feColorMatrix type="matrix" values="0 0 0 0 0.086 0 0 0 0 0.2795 0 0 0 0 0.86 0 0 0 1 0"/>
<feBlend mode="normal" in2="effect2_dropShadow_3223_116" result="effect3_dropShadow_3223_116"/>
<feColorMatrix in="SourceAlpha" type="matrix" values="0 0 0 0 0 0 0 0 0 0 0 0 0 0 0 0 0 0 127 0" result="hardAlpha"/>
<feMorphology radius="2" operator="dilate" in="SourceAlpha" result="effect4_dropShadow_3223_116"/>
<feOffset/>
<feGaussianBlur stdDeviation="2"/>
<feComposite in2="hardAlpha" operator="out"/>
<feColorMatrix type="matrix" values="0 0 0 0 0.384314 0 0 0 0 0.670588 0 0 0 0 0.956863 0 0 0 0.8 0"/>
<feBlend mode="screen" in2="effect3_dropShadow_3223_116" result="effect4_dropShadow_3223_116"/>
<feBlend mode="normal" in="SourceGraphic" in2="effect4_dropShadow_3223_116" result="shape"/>
<feGaussianBlur stdDeviation="4" result="effect5_foregroundBlur_3223_116"/>
</filter>
</defs>
</svg>
